<?xml version="1.0" encoding="utf-8"?>
<!-- Generator: Adobe Illustrator 16.0.0, SVG Export Plug-In . SVG Version: 6.00 Build 0)  -->
<!DOCTYPE svg PUBLIC "-//W3C//DTD SVG 1.1//EN" "http://www.w3.org/Graphics/SVG/1.1/DTD/svg11.dtd">
<svg version="1.1" id="Layer_1" xmlns="http://www.w3.org/2000/svg" xmlns:xlink="http://www.w3.org/1999/xlink" x="0px" y="0px"
	 width="1024px" height="768px" viewBox="0 0 1024 768" enable-background="new 0 0 1024 768" xml:space="preserve">
<path fill="#336699" d="M512,768c-212.069,0-383.994-171.925-383.994-384C128.006,171.917,299.931,0,512,0
	c212.063,0,383.994,171.917,383.994,384C895.994,596.075,724.063,768,512,768z"/>
<linearGradient id="_x31_3_1_" gradientUnits="userSpaceOnUse" x1="45.5576" y1="569.6035" x2="303.7432" y2="569.6035" gradientTransform="matrix(1.536 0 0 -1.536 243.7388 1258.9066)">
	<stop  offset="0.5" style="stop-color:#FFFFFF"/>
	<stop  offset="0.5" style="stop-color:#EBEBEB"/>
</linearGradient>
<path id="_x31_3" fill="url(#_x31_3_1_)" d="M572.973,554.389h-47.727V311.291c18.897-4.929,33.614-20.139,37.776-39.338H619
	l-62.043,119.82h9.452l62.043-119.82h8.312l62.049,119.82h9.439l-62.043-119.82h52.438c6.21,0,11.225-5.021,11.225-11.237
	c0-6.222-5.015-11.251-11.225-11.251H562.956c-4.253-19.062-18.911-34.139-37.71-39.056V190.96c0-3.118-2.534-5.651-5.664-5.651
	h-14.941c-3.13,0-5.664,2.535-5.664,5.651v19.423c-18.865,4.876-33.582,19.968-37.843,39.082H324.958
	c-6.222,0-11.243,5.029-11.243,11.251c0,6.216,5.021,11.237,11.243,11.237h53.05l-62.049,119.82h9.438l62.049-119.82h8.31
	l62.055,119.82h9.438l-62.043-119.82h55.848c4.181,19.246,18.969,34.474,37.92,39.372v243.064h-47.726
	c-7.825,0-14.153,6.341-14.153,14.151s6.328,14.152,14.153,14.152h121.722c7.818,0,14.153-6.341,14.153-14.152
	C587.125,560.729,580.791,554.389,572.973,554.389z M482.39,260.846c0-16.377,13.278-29.643,29.655-29.643
	c16.364,0,29.643,13.266,29.643,29.643c0,16.376-13.278,29.655-29.643,29.655C495.669,290.503,482.39,277.223,482.39,260.846z
	 M412.746,453.224h-42.28c-31.225,0-56.542-25.33-56.542-56.543c0-0.032,0-0.065,0-0.092h155.35c0,0.026,0,0.06,0,0.092
	C469.275,427.894,443.983,453.224,412.746,453.224z M710.285,396.681c0,31.212-25.304,56.543-56.543,56.543h-42.277
	c-31.226,0-56.543-25.33-56.543-56.543c0-0.032,0.012-0.065,0.012-0.092h155.344C710.279,396.616,710.285,396.648,710.285,396.681z"
	/>
<g id="Layer_1_1_">
</g>
</svg>
